#!OML:ASF H:\Terrain\Patient Classification 1\Takeo\Monday\TakeoMonday.ASF
:FULLY-SPECIFIED
:DEGREES
173
root 10.4213 17.386 0.398714 -2.15099 1.46886 4.32202
lowerback 8.87212 -1.42833 -2.59121
upperback 1.49962 -2.16443 -0.595621
thorax -3.34271 -1.04854 1.08873
lowerneck -14.802 0.928967 -3.68406
upperneck -3.2752 1.81436 0.0687387
head 1.43267 0.934045 0.756239
rclavicle 4.14963e-015 1.27222e-014
rhumerus -41.7848 -3.51458 -85.993
rradius 20.239
rwrist -9.80603
rhand -31.0564 20.3692
rfingers 7.12502
rthumb -4.33762 -9.56637
lclavicle 4.14963e-015 1.27222e-014
lhumerus -29.3628 -4.65116 89.7223
lradius 59.3938
lwrist 32.5666
lhand -25.1669 19.4609
lfingers 7.12502
lthumb 1.35041 49.4364
rfemur -30.6433 5.08285 15.1395
rtibia 50.5854
rfoot -12.3484 -11.3924
rtoes -20.1588
lfemur 2.69817 -5.01841 -30.8754
ltibia 26.907
lfoot -17.7896 5.79109
ltoes -10.3414
174
root 10.409 17.3932 0.628056 -2.09217 2.01225 4.37239
lowerback 9.12692 -1.55587 -2.83942
upperback 1.35858 -2.36382 -0.457976
thorax -3.60764 -1.13833 1.40415
lowerneck -14.7423 0.998338 -3.88179
upperneck -3.05187 1.9348 0.264514
head 1.49194 0.998355 0.861702
rclavicle -2.45996e-014 -1.15295e-014
rhumerus -43.124 -4.61705 -84.9749
rradius 19.6425
rwrist -7.89982
rhand -30.653 20.3169
rfingers 7.12502
rthumb -3.94803 -9.62629
lclavicle -2.45996e-014 -1.15295e-014
lhumerus -29.1936 -5.30955 89.8632
lradius 61.436
lwrist 32.8671
lhand -25.5792 18.9394
lfingers 7.12502
lthumb 0.952181 48.917
rfemur -30.9933 5.24707 14.6989
rtibia 47.6128
rfoot -13.3099 -11.0906
rtoes -19.1376
lfemur 4.16948 -4.76579 -30.8643
ltibia 25.5506
lfoot -17.4218 5.57062
ltoes -11.5941
175
root 10.3995 17.3906 0.866103 -2.0683 2.65203 4.45824
lowerback 9.16737 -1.72768 -2.99182
upperback 1.35569 -2.60749 -0.43906
thorax -3.61481 -1.25683 1.53898
lowerneck -14.777 0.991445 -4.04586
upperneck -2.90486 1.94873 0.609471
head 1.54419 1.01466 1.00444
rclavicle -2.79789e-014 -1.86858e-014
rhumerus -44.3618 -4.89827 -84.7435
rradius 19.3066
rwrist -7.557
rhand -30.4219 20.2536
rfingers 7.12502
rthumb -3.7249 -9.69359
lclavicle -2.79789e-014 -1.86858e-014
lhumerus -28.8064 -6.00906 89.8354
lradius 63.3482
lwrist 33.3694
lhand -26.0444 16.854
lfingers 7.12502
lthumb 0.502818 46.8331
rfemur -31.1151 5.25784 14.2241
rtibia 44.5758
rfoot -14.1319 -10.5926
rtoes -18.9443
lfemur 5.65505 -4.64793 -30.8852
ltibia 24.3077
lfoot -17.075 5.29706
ltoes -12.7589
176
root 10.3907 17.3991 1.10849 -1.98709 3.32459 4.64781
lowerback 9.09396 -1.91952 -3.16409
upperback 1.38743 -2.87778 -0.498459
thorax -3.52292 -1.39091 1.60127
lowerneck -14.8199 0.892513 -4.19501
upperneck -2.90116 1.83854 0.893016
head 1.55406 0.969176 1.11678
rclavicle -3.51352e-014 2.78299e-015
rhumerus -45.3489 -5.01109 -84.7514
rradius 18.8514
rwrist -7.46497
rhand -30.2298 20.0562
rfingers 7.12502
rthumb -3.53935 -9.89417
lclavicle -3.51352e-014 2.78299e-015
lhumerus -28.2286 -6.68155 89.6913
lradius 65.0325
lwrist 33.6693
lhand -26.5695 15.365
lfingers 7.12502
lthumb -0.00432394 45.3447
rfemur -31.2288 5.43303 13.5909
rtibia 41.5841
rfoot -14.7587 -10.645
rtoes -20.1606
lfemur 6.99978 -4.78165 -30.97
ltibia 23.1016
lfoot -16.6465 4.64083
ltoes -10.9875
177
root 10.3715 17.4019 1.34741 -1.87897 3.9059 4.85607
lowerback 9.05899 -2.01286 -3.4858
upperback 1.42881 -3.03123 -0.526042
thorax -3.43766 -1.46529 1.76724
lowerneck -15.0287 0.866998 -4.16255
upperneck -2.74716 1.80958 0.920293
head 1.64322 0.953737 1.12328
rclavicle -1.07592e-014 -9.14409e-015
rhumerus -46.2956 -5.68287 -84.3159
rradius 18.357
rwrist -6.63978
rhand -29.9343 20.0067
rfingers 7.12502
rthumb -3.25403 -9.94818
lclavicle -1.07592e-014 -9.14409e-015
lhumerus -27.5837 -7.50003 89.562
lradius 66.6751
lwrist 33.79
lhand -26.8562 15.0046
lfingers 7.12502
lthumb -0.281241 44.9842
rfemur -31.4191 5.94006 12.8959
rtibia 38.7181
rfoot -15.6071 -11.4515
rtoes -20.9587
lfemur 8.35668 -4.61478 -30.9546
ltibia 21.8156
lfoot -16.1847 3.77031
ltoes -10.412
178
root 10.3463 17.385 1.58579 -1.60321 4.43766 5.08347
lowerback 8.8111 -2.05113 -3.85518
upperback 1.477 -3.10496 -0.537208
thorax -3.22659 -1.50292 1.95752
lowerneck -15.0614 0.869912 -4.25186
upperneck -2.83154 1.82858 0.99111
head 1.61948 0.967465 1.16247
rclavicle 1.9953e-014 4.37326e-015
rhumerus -47.2569 -6.21434 -83.9818
rradius 18.047
rwrist -6.19381
rhand -29.838 20.4582
rfingers 7.12502
rthumb -3.16097 -9.49811
lclavicle 1.9953e-014 4.37326e-015
lhumerus -26.944 -8.428 89.4179
lradius 68.3755
lwrist 34.0546
lhand -26.8917 14.5395
lfingers 7.12502
lthumb -0.315473 44.519
rfemur -31.8415 6.4924 12.1454
rtibia 36.0228
rfoot -16.9685 -12.3693
rtoes -20.3036
lfemur 9.63724 -4.40075 -30.9199
ltibia 20.4607
lfoot -15.7277 3.07627
ltoes -11.5344
179
root 10.3286 17.3669 1.83469 -1.34413 5.03713 5.15016
lowerback 8.3965 -2.18703 -3.96608
upperback 1.5483 -3.2728 -0.509549
thorax -2.90404 -1.59347 2.04378
lowerneck -14.8922 0.739775 -4.54923
upperneck -3.03697 1.69343 1.17453
head 1.52338 0.91037 1.2617
rclavicle 1.17034e-014 1.31198e-014
rhumerus -48.1788 -6.56478 -83.7299
rradius 17.787
rwrist -5.87373
rhand -29.5826 19.7738
rfingers 7.12502
rthumb -2.91432 -10.1861
lclavicle 1.17034e-014 1.31198e-014
lhumerus -26.428 -9.03015 89.2436
lradius 70.0199
lwrist 34.1142
lhand -27.0549 13.4263
lfingers 7.12502
lthumb -0.473146 43.4055
rfemur -32.2234 6.90821 11.5576
rtibia 33.6408
rfoot -18.4922 -13.0116
rtoes -17.632
lfemur 10.9566 -4.56542 -30.7702
ltibia 19.0311
lfoot -15.1053 2.5396
ltoes -12.394
180
root 10.3172 17.3571 2.08551 -1.37823 5.66302 4.92815
lowerback 8.26953 -2.39898 -3.75752
upperback 1.68493 -3.52197 -0.380892
thorax -2.68067 -1.72551 2.07408
lowerneck -15.1309 0.635172 -4.52442
upperneck -2.88246 1.56728 0.980684
head 1.62123 0.839645 1.19241
rclavicle 3.32716e-014 9.93923e-015
rhumerus -48.913 -6.6504 -83.5653
rradius 17.3653
rwrist -5.55998
rhand -29.2122 18.7453
rfingers 7.12502
rthumb -2.55666 -11.2191
lclavicle 3.32716e-014 9.93923e-015
lhumerus -25.8357 -9.28201 89.1031
lradius 71.4403
lwrist 33.8883
lhand -26.8442 12.6031
lfingers 7.12502
lthumb -0.269574 42.5827
rfemur -32.3054 7.23828 11.3619
rtibia 31.6894
rfoot -19.4553 -13.7997
rtoes -13.9428
lfemur 12.6114 -4.77655 -30.3471
ltibia 17.4269
lfoot -14.4664 2.1623
ltoes -13.9465
181
root 10.3089 17.3402 2.334 -1.55827 6.20902 4.92953
lowerback 8.3497 -2.55554 -3.64521
upperback 1.87402 -3.71923 -0.416457
thorax -2.52668 -1.82989 1.99182
lowerneck -15.4541 0.717369 -4.1684
upperneck -2.77109 1.64034 0.610691
head 1.71556 0.860939 1.0195
rclavicle -4.82053e-015 -7.55382e-015
rhumerus -49.4933 -6.5981 -83.7608
rradius 16.8415
rwrist -5.55029
rhand -28.9444 18.7636
rfingers 7.12502
rthumb -2.29803 -11.2037
lclavicle -4.82053e-015 -7.55382e-015
lhumerus -25.1164 -9.80677 88.8644
lradius 72.7572
lwrist 34.0414
lhand -26.6116 12.6236
lfingers 7.12502
lthumb -0.0449728 42.6034
rfemur -32.2665 7.05893 11.2036
rtibia 30.1561
rfoot -19.539 -14.6217
rtoes -12.6114
lfemur 14.5901 -4.788 -30.1446
ltibia 15.6574
lfoot -13.7847 1.65894
ltoes -16.1652
182
root 10.3007 17.312 2.58733 -1.74424 6.72433 5.1847
lowerback 8.50594 -2.67569 -3.79552
upperback 1.91177 -3.90135 -0.548096
thorax -2.56252 -1.91913 1.96465
lowerneck -15.2329 0.849936 -3.92578
upperneck -2.80547 1.76921 0.422991
head 1.66351 0.918463 0.920518
rclavicle 1.83876e-015 -7.15625e-015
rhumerus -50.4512 -6.75736 -83.7815
rradius 16.4411
rwrist -5.33229
rhand -28.4522 17.11
rfingers 7.12502
rthumb -1.82263 -12.8619
lclavicle 1.83876e-015 -7.15625e-015
lhumerus -24.8904 -10.3315 88.612
lradius 74.237
lwrist 34.1002
lhand -26.5188 13.1536
lfingers 7.12502
lthumb 0.0446228 43.1334
rfemur -32.2399 6.39447 11.003
rtibia 28.9681
rfoot -19.8544 -14.9208
rtoes -14.5596
lfemur 16.5817 -4.92388 -30.2494
ltibia 13.9902
lfoot -12.8861 0.964645
ltoes -16.5835
183
root 10.2889 17.2914 2.84533 -1.80179 7.20797 5.18781
lowerback 8.58551 -2.81503 -3.87524
upperback 1.75734 -4.0989 -0.461498
thorax -2.74292 -2.01067 2.12758
lowerneck -14.88 0.89468 -3.98238
upperneck -2.61584 1.82568 0.369875
head 1.66353 0.942895 0.91404
rclavicle -2.10463e-014 5.1684e-015
rhumerus -51.716 -7.08173 -83.2462
rradius 16.1498
rwrist -4.41035
rhand -28.326 15.5336
rfingers 7.12502
rthumb -1.7008 -14.4394
lclavicle -2.10463e-014 5.1684e-015
lhumerus -25.0577 -10.3841 88.5897
lradius 75.6591
lwrist 33.6179
lhand -26.1941 13.5585
lfingers 7.12502
lthumb 0.358297 43.538
rfemur -32.3651 5.75252 11.1017
rtibia 28.0381
rfoot -20.8343 -14.846
rtoes -16.812
lfemur 18.1662 -5.23461 -30.1099
ltibia 12.7101
lfoot -12.0571 0.294763
ltoes -15.154
184
root 10.2723 17.2796 3.09819 -1.56751 7.52958 5.14215
lowerback 8.33448 -2.92956 -3.96661
upperback 1.63895 -4.247 -0.330353
thorax -2.70034 -2.08317 2.31663
lowerneck -14.7145 0.943689 -4.07776
upperneck -2.5757 1.89939 0.359774
head 1.64548 0.979397 0.929837
rclavicle 6.79347e-014 -5.96354e-015
rhumerus -52.5933 -7.2919 -82.8018
rradius 15.8348
rwrist -3.53472
rhand -29.2235 20.0596
rfingers 7.12502
rthumb -2.56756 -9.90472
lclavicle 6.79347e-014 -5.96354e-015
lhumerus -24.8645 -10.3818 88.567
lradius 76.6307
lwrist 33.3016
lhand -25.9887 13.1799
lfingers 7.12502
lthumb 0.556685 43.1589
rfemur -32.7422 5.19474 11.2991
rtibia 27.2325
rfoot -21.0753 -14.5216
rtoes -17.8537
lfemur 19.1103 -5.47821 -29.9097
ltibia 12.0628
lfoot -11.469 -0.0691609
ltoes -15.3956
